HIERARCHY
ROOT Hips
{
	OFFSET 0.00000 0.00000 0.00000
	CHANNELS 6 Xposition Yposition Zposition Zrotation Yrotation Xrotation 
	JOINT RightUpLegDummy
	{
		OFFSET 0 0 0
		CHANNELS 3 Zrotation Yrotation Xrotation
		JOINT RightUpLeg
		{
			OFFSET -3.52197 -3.41223 0.04002
			CHANNELS 3 Zrotation Yrotation Xrotation
			JOINT RightLeg
			{
				OFFSET 0.00006 -17.42390 1.60435
				CHANNELS 3 Zrotation Yrotation Xrotation
				JOINT RightFoot
				{
					OFFSET 0.06154 -16.50078 -1.63900
					CHANNELS 3 Zrotation Yrotation Xrotation
					JOINT RightToes
					{
						OFFSET 0.00298 -1.73825 3.34613
						CHANNELS 3 Zrotation Yrotation Xrotation
						End Site
						{
							OFFSET 0.00000 0.00000 0.00000
						}
					}
				}
			}
		}
	}
	JOINT SpineDummy
	{
		OFFSET 0 0 0
		CHANNELS 3 Zrotation Yrotation Xrotation
		JOINT Spine
		{
			OFFSET 0.00000 4.68130 0.00000
			CHANNELS 3 Zrotation Yrotation Xrotation
			JOINT Spine1
			{
				OFFSET -0.00000 10.10138 0.05002
				CHANNELS 3 Zrotation Yrotation Xrotation
				JOINT HEadDummy
				{
					OFFSET 0 0 0
					CHANNELS 3 Zrotation Yrotation Xrotation
					JOINT Head
					{
						OFFSET -0.00000 3.43865 0.00438
						CHANNELS 3 Zrotation Yrotation Xrotation
						End Site
						{
							OFFSET 0.00000 0.00000 0.00000
						}
					}
				}
				JOINT LeftShoulder1Dummy
				{
					OFFSET 0 0 0
					CHANNELS 3 Zrotation Yrotation Xrotation
					JOINT LeftShoulder1
					{
						OFFSET 3.53937 -0.14262 -0.08662
						CHANNELS 3 Zrotation Yrotation Xrotation
						JOINT LeftArm
						{
							OFFSET 4.04833 -0.00133 0.12681
							CHANNELS 3 Zrotation Yrotation Xrotation
							JOINT LeftForeArm
							{
								OFFSET 10.33880 -0.01036 -0.55515
								CHANNELS 3 Zrotation Yrotation Xrotation
								JOINT LeftHand
								{
									OFFSET 8.69677 0.07543 0.40060
									CHANNELS 3 Zrotation Yrotation Xrotation
									End Site
									{
										OFFSET 0.00000 0.00000 0.00000
									}
								}
							}
						}
					}
				}
				JOINT RightShoulderDummy
				{
					OFFSET 0 0 0
					CHANNELS 3 Zrotation Yrotation Xrotation
					JOINT RightShoulder
					{
						OFFSET -3.53937 -0.14262 -0.08660
						CHANNELS 3 Zrotation Yrotation Xrotation
						JOINT RightArm
						{
							OFFSET -4.04833 -0.00133 0.12683
							CHANNELS 3 Zrotation Yrotation Xrotation
							JOINT RightForeArm
							{
								OFFSET -10.37987 -0.01039 -0.55511
								CHANNELS 3 Zrotation Yrotation Xrotation
								JOINT RightHand
								{
									OFFSET -8.67398 0.07538 0.40058
									CHANNELS 3 Zrotation Yrotation Xrotation
									End Site
									{
										OFFSET 0.00000 0.00000 0.00000
									}
								}
							}
						}
					}
				}
			}
		}
	}
	JOINT LeftUpLegDummy
	{
		OFFSET 0 0 0
		CHANNELS 3 Zrotation Yrotation Xrotation
		JOINT LeftUpLeg
		{
			OFFSET 3.52197 -3.41223 0.04002
			CHANNELS 3 Zrotation Yrotation Xrotation
			JOINT LeftLeg
			{
				OFFSET -0.00012 -17.42399 1.60337
				CHANNELS 3 Zrotation Yrotation Xrotation
				JOINT LeftFoot
				{
					OFFSET -0.09972 -16.50070 -1.63802
					CHANNELS 3 Zrotation Yrotation Xrotation
					JOINT LeftToes
					{
						OFFSET -0.01575 -1.73823 3.34611
						CHANNELS 3 Zrotation Yrotation Xrotation
						End Site
						{
							OFFSET 0.00000 0.00000 0.00000
						}
					}
				}
			}
		}
	}
}
MOTION
Frames: 19
Frame Time: 0.033333
-5.2764 39.8517 21.6595 173.4280 -47.1856 -177.8760 0.0000 0.0000 0.0000 2.3820 -6.8606 -19.1759 4.0451 -15.8893 3.5610 3.4316 -0.2643 -2.9055 -0.0000 0.0000 -0.0000 0.0000 0.0000 0.0000 -6.8116 -2.9788 6.6398 4.7888 -4.6336 6.2645 0.0000 0.0000 0.0000 3.8283 -3.5507 -12.1395 0.0000 0.0000 0.0000 -45.7029 -11.5248 7.8785 -16.6717 3.7899 -14.1136 -1.4323 -13.7699 18.9255 5.3221 0.0205 -0.2441 0.0000 0.0000 0.0000 38.6619 8.5153 5.3898 28.0741 -11.5526 -2.7929 5.8446 9.5607 2.3626 -20.3171 4.9346 -1.7998 0.0000 0.0000 0.0000 0.8265 7.2825 12.5139 -3.4463 17.8804 6.3573 -6.4293 -0.0339 -13.3695 -0.0000 -0.0000 0.0000
-6.5001 39.5456 21.0887 172.3930 -46.7548 -176.8560 0.0000 0.0000 0.0000 0.5214 -3.0050 -18.5696 6.9135 -19.0756 -5.2898 3.0327 -0.2272 -3.2037 -0.0000 0.0000 -0.0000 0.0000 0.0000 0.0000 -7.5575 -3.4616 6.8992 5.0062 -5.1635 5.7680 0.0000 0.0000 0.0000 4.3201 -3.6788 -12.9770 0.0000 0.0000 0.0000 -45.2239 -11.4718 7.7714 -13.3331 2.3926 -15.6405 -1.0881 -14.5390 17.7568 5.3221 0.0205 -0.2441 0.0000 0.0000 0.0000 37.8792 8.1183 5.1172 28.7340 -14.0607 -6.9546 5.1894 8.2789 -1.0399 -21.1698 5.3444 -1.9513 0.0000 0.0000 0.0000 -0.4712 6.8913 14.5216 -3.6176 18.3130 6.1656 -6.8391 -0.1307 -15.0164 -0.0000 -0.0000 0.0000
-7.7646 39.1998 20.4521 171.9060 -46.5266 -176.6230 0.0000 0.0000 0.0000 0.4223 -3.0299 -19.6597 6.4182 -18.2610 -5.3398 3.0606 -0.2025 -4.4262 -0.0000 0.0000 -0.0000 0.0000 0.0000 0.0000 -7.0772 -3.7632 7.4165 4.5011 -5.3386 5.5391 0.0000 0.0000 0.0000 4.5432 -4.0690 -14.2126 0.0000 0.0000 0.0000 -44.8091 -11.3927 7.6623 -10.8049 0.3593 -17.7910 -0.6142 -15.7491 17.1073 5.3221 0.0205 -0.2441 0.0000 0.0000 0.0000 37.2310 7.8865 4.9387 29.8128 -16.3595 -10.2622 4.5635 6.9085 -4.0880 -21.1867 5.5000 -1.9813 0.0000 0.0000 0.0000 -1.1780 6.8418 16.6579 -3.5512 18.2660 6.8801 -7.4596 -0.2533 -16.7734 -0.0000 -0.0000 0.0000
-9.0633 38.9384 19.7145 172.4960 -46.7891 -177.3050 0.0000 0.0000 0.0000 0.6662 -3.4250 -20.2773 5.2934 -19.9617 -1.4850 1.8995 -0.1341 -4.3701 -0.0000 0.0000 -0.0000 0.0000 0.0000 0.0000 -5.7062 -4.0341 7.7283 4.3415 -5.6526 6.0232 0.0000 0.0000 0.0000 4.3170 -4.3774 -15.7086 0.0000 0.0000 0.0000 -44.5001 -11.4183 7.6247 -9.7019 -1.4247 -20.2503 -0.0344 -18.2957 17.2059 5.3221 0.0205 -0.2441 0.0000 0.0000 0.0000 36.7142 7.8932 4.8807 30.9185 -18.2180 -12.3544 4.1274 5.3586 -5.4777 -20.8602 5.7022 -1.9855 0.0000 0.0000 0.0000 -0.7460 7.1914 18.7851 -3.1848 17.5599 8.1518 -8.0226 -0.3241 -17.4351 -0.0000 -0.0000 0.0000
-10.4720 38.7513 18.7857 173.7170 -47.8539 -178.2110 0.0000 0.0000 0.0000 1.7954 -5.8329 -20.9981 3.3385 -22.0135 4.5917 -1.3885 0.1119 -2.5694 -0.0000 0.0000 -0.0000 0.0000 0.0000 0.0000 -4.0315 -4.5849 6.9458 4.7268 -6.3122 6.8137 0.0000 0.0000 0.0000 3.4889 -4.5138 -16.6082 0.0000 0.0000 0.0000 -44.5013 -11.5206 7.6772 -9.9477 -2.0835 -21.5616 0.3088 -22.4450 17.8050 5.3221 0.0205 -0.2441 0.0000 0.0000 0.0000 36.4380 7.9882 4.8886 31.8778 -19.9403 -13.1791 3.9000 4.0177 -5.3296 -20.9203 6.0982 -2.0622 0.0000 0.0000 0.0000 1.0487 8.7925 20.5755 -2.4765 14.4527 10.2751 -9.7011 -0.4013 -17.2748 -0.0000 -0.0000 0.0000
-11.9673 38.7142 17.7222 175.8760 -48.4470 -179.4840 0.0000 0.0000 0.0000 4.8573 -10.4622 -21.6258 1.4268 -20.1385 9.4133 -7.0959 0.7733 0.9581 -0.0000 0.0000 -0.0000 0.0000 0.0000 0.0000 -0.9726 -4.9252 5.3168 4.7329 -6.5770 7.4083 0.0000 0.0000 0.0000 2.0586 -4.6053 -16.2694 0.0000 0.0000 0.0000 -44.8994 -11.4676 7.7155 -11.1321 -1.5535 -20.8915 0.4350 -27.8391 19.0913 5.3221 0.0205 -0.2441 0.0000 0.0000 0.0000 36.5992 7.9993 4.9123 32.7779 -21.7552 -13.3983 3.7803 3.4086 -4.6710 -21.1456 6.3487 -2.1302 0.0000 0.0000 0.0000 4.7046 13.3949 22.3559 -1.6858 8.0961 12.3022 -13.6853 -0.4005 -15.5467 -0.0000 -0.0000 0.0000
-13.4526 38.7527 16.6018 178.2450 -47.1013 179.0840 0.0000 0.0000 0.0000 8.9532 -15.0437 -22.6417 -0.1145 -14.2735 14.1817 -12.4694 1.5152 2.4904 -0.0000 0.0000 -0.0000 0.0000 0.0000 0.0000 3.0726 -4.4360 3.8654 3.7466 -5.6910 7.3800 0.0000 0.0000 0.0000 0.3872 -4.4812 -15.0587 0.0000 0.0000 0.0000 -45.4192 -11.1406 7.6314 -13.2584 -0.0531 -19.4105 0.6252 -34.1684 21.7956 5.3221 0.0205 -0.2441 0.0000 0.0000 0.0000 37.1749 7.9995 4.9810 33.7403 -22.9709 -13.8557 3.5984 3.4948 -4.1967 -20.9141 6.2437 -2.0875 0.0000 0.0000 0.0000 8.7973 19.9259 23.1134 -0.1761 1.7722 16.4340 -18.0769 0.1540 -10.8501 -0.0000 -0.0000 0.0000
-14.8086 38.8140 15.4899 -179.9030 -44.4796 177.9140 0.0000 0.0000 0.0000 12.9116 -18.9093 -22.9589 -1.2964 -7.0904 18.3436 -14.5566 1.5346 0.5739 -0.0000 0.0000 -0.0000 0.0000 0.0000 0.0000 6.4861 -3.4949 3.3093 2.6577 -4.2335 6.9925 0.0000 0.0000 0.0000 -0.8566 -3.8356 -14.0048 0.0000 0.0000 0.0000 -45.7770 -10.7649 7.4929 -16.3563 2.2860 -18.4378 0.9234 -40.9627 25.3254 5.3221 0.0205 -0.2441 0.0000 0.0000 0.0000 37.9571 8.1837 5.1556 34.6750 -22.4696 -14.7242 3.3394 3.9399 -4.1183 -20.4701 6.0305 -2.0041 0.0000 0.0000 0.0000 9.9958 20.9497 20.3615 2.0932 2.5481 24.9641 -18.3986 1.4776 -2.0322 -0.0000 -0.0000 0.0000
-15.9617 38.8579 14.4672 -178.2300 -42.6530 176.9230 0.0000 0.0000 0.0000 14.3729 -19.4600 -21.8397 -1.9239 -4.7831 21.1224 -13.6681 1.0059 -2.9051 -0.0000 0.0000 -0.0000 0.0000 0.0000 0.0000 8.7584 -2.9962 3.2521 2.4330 -3.3734 7.0646 0.0000 0.0000 0.0000 -1.2401 -2.9339 -13.7237 0.0000 0.0000 0.0000 -46.0524 -10.6463 7.4741 -19.8066 4.9379 -17.7265 1.2333 -47.0373 27.8494 5.3221 0.0205 -0.2441 0.0000 0.0000 0.0000 38.8875 8.5378 5.4284 35.3790 -19.8768 -15.4375 3.1704 4.7091 -4.4060 -20.5202 6.0540 -2.0136 0.0000 0.0000 0.0000 9.3916 17.7186 13.9933 4.6619 4.7563 36.6400 -14.0841 2.3626 8.0705 -0.0000 -0.0000 0.0000
-16.9851 38.9095 13.5345 -176.6560 -42.2726 176.0310 0.0000 0.0000 0.0000 14.1260 -18.4109 -20.0316 -1.9605 -5.9495 22.7475 -12.5096 0.5859 -5.7889 -0.0000 0.0000 -0.0000 0.0000 0.0000 0.0000 10.5069 -3.0606 3.1223 2.6315 -3.1620 7.7766 0.0000 0.0000 0.0000 -1.0571 -2.4871 -13.9016 0.0000 0.0000 0.0000 -46.4423 -10.7962 7.6153 -22.9120 7.0360 -16.5373 1.4448 -50.9457 28.9311 5.3221 0.0205 -0.2441 0.0000 0.0000 0.0000 39.9922 8.8684 5.7209 35.7506 -15.7447 -15.3419 3.2254 5.9135 -4.4056 -20.9902 6.3478 -2.1139 0.0000 0.0000 0.0000 8.5989 13.2346 6.2885 6.2262 4.2737 48.0466 -9.5878 2.0246 13.1604 -0.0000 -0.0000 0.0000
-18.0188 39.1278 12.5683 -176.2750 -41.8432 175.7300 0.0000 0.0000 0.0000 12.4397 -16.0865 -17.0900 -1.6051 -8.1682 22.7964 -11.9555 0.3682 -7.5618 -0.0000 0.0000 -0.0000 0.0000 0.0000 0.0000 11.4690 -2.8639 2.9717 2.2698 -2.6997 8.3722 0.0000 0.0000 0.0000 -0.9847 -2.7695 -13.8152 0.0000 0.0000 0.0000 -46.9954 -11.0053 7.8160 -25.6092 8.2380 -14.8547 1.5291 -51.9536 29.6688 5.3221 0.0205 -0.2441 0.0000 0.0000 0.0000 41.0376 9.1127 5.9737 35.8050 -10.8278 -14.0091 3.5328 7.5564 -3.1123 -21.2496 6.6586 -2.1972 0.0000 0.0000 0.0000 7.3642 9.2089 -0.6127 7.1191 3.4861 56.3894 -6.8026 1.3269 11.8055 -0.0000 -0.0000 0.0000
-19.0542 39.4515 11.5608 -177.1740 -40.3447 176.1690 0.0000 0.0000 0.0000 10.1681 -13.1401 -13.3796 -1.0910 -9.6732 21.6116 -10.9742 0.1929 -9.0018 -0.0000 0.0000 -0.0000 0.0000 0.0000 0.0000 11.6443 -2.0755 3.0355 1.3029 -1.5919 8.4687 0.0000 0.0000 0.0000 -1.2899 -3.3199 -13.0953 0.0000 0.0000 0.0000 -47.5196 -11.1413 7.9754 -28.2470 8.8295 -13.0758 1.5051 -50.1044 30.4889 5.3221 0.0205 -0.2441 0.0000 0.0000 0.0000 41.6703 9.3695 6.1821 35.6346 -5.6580 -10.8554 4.0297 9.9404 -0.7739 -21.2322 6.8246 -2.2255 0.0000 0.0000 0.0000 5.8540 6.7361 -6.3733 8.2054 3.3198 60.7335 -5.3241 0.8346 7.4599 -0.0000 -0.0000 0.0000
-20.0532 39.7273 10.5594 -178.3370 -38.2761 176.8560 0.0000 0.0000 0.0000 8.0430 -10.2073 -9.8031 -0.4230 -10.6262 20.1044 -9.6195 0.0409 -10.3953 -0.0000 0.0000 -0.0000 0.0000 0.0000 0.0000 11.7144 -1.0767 3.2057 0.1643 -0.2424 8.3201 0.0000 0.0000 0.0000 -1.6937 -3.6025 -11.9954 0.0000 0.0000 0.0000 -47.7903 -11.2348 8.0713 -30.8263 9.0582 -10.9915 1.3469 -45.6614 30.3730 5.3221 0.0205 -0.2441 0.0000 0.0000 0.0000 41.8817 9.6691 6.3555 35.3551 -0.6399 -4.4835 4.0288 13.8173 -0.2173 -21.3037 6.8621 -2.2400 0.0000 0.0000 0.0000 4.6084 5.0273 -11.5036 9.0160 3.5464 61.4725 -3.9739 0.5004 3.5965 -0.0000 -0.0000 0.0000
-21.0343 39.9496 9.5507 -179.4310 -36.3045 177.4720 0.0000 0.0000 0.0000 6.1379 -7.8913 -6.4147 0.4279 -11.0721 18.4428 -8.8844 -0.0539 -11.4807 -0.0000 0.0000 -0.0000 0.0000 0.0000 0.0000 11.8213 -0.1855 3.3703 -1.0992 0.9811 8.1674 0.0000 0.0000 0.0000 -1.9374 -3.5140 -11.0269 0.0000 0.0000 0.0000 -47.8987 -11.3642 8.1603 -32.9177 8.9539 -7.9052 1.0825 -39.1024 28.4720 5.3221 0.0205 -0.2441 0.0000 0.0000 0.0000 41.9901 9.9302 6.4969 34.9088 4.0467 4.6840 2.4692 19.1738 -3.1488 -21.3358 6.7569 -2.2244 0.0000 0.0000 0.0000 3.6523 3.2765 -15.9115 9.1040 4.0316 59.1125 -2.2626 0.2351 0.8363 -0.0000 -0.0000 0.0000
-22.0003 40.1273 8.5368 179.4460 -34.4919 177.9110 0.0000 0.0000 0.0000 4.3931 -7.0294 -2.9401 1.3209 -10.0152 16.6624 -8.4931 -0.1343 -12.5345 -0.0000 0.0000 -0.0000 0.0000 0.0000 0.0000 11.7520 0.5118 3.7231 -2.5598 2.0058 8.0509 0.0000 0.0000 0.0000 -2.0635 -3.1440 -10.4611 0.0000 0.0000 0.0000 -48.1554 -11.5676 8.3155 -34.3016 8.6529 -3.4751 0.8500 -31.4309 25.3051 5.3221 0.0205 -0.2441 0.0000 0.0000 0.0000 42.1560 10.1156 6.6106 34.0779 8.6869 10.5967 0.7417 24.5206 -4.4725 -20.9257 6.4105 -2.1186 0.0000 0.0000 0.0000 2.9445 1.6478 -19.2229 8.4860 4.7160 53.8955 -1.7290 0.1556 -1.4503 -0.0000 -0.0000 0.0000
-22.9600 40.1884 7.5277 178.6930 -32.8653 178.0630 0.0000 0.0000 0.0000 2.9658 -7.1300 0.3369 1.9494 -8.0386 15.4072 -7.5954 -0.2278 -14.0065 -0.0000 0.0000 -0.0000 0.0000 0.0000 0.0000 11.8325 0.9394 4.1312 -4.0485 2.7417 8.0349 0.0000 0.0000 0.0000 -2.1463 -2.5175 -10.2519 0.0000 0.0000 0.0000 -48.6891 -11.8381 8.5575 -35.1458 8.4340 1.1184 0.2684 -23.8122 22.8237 5.3221 0.0205 -0.2441 0.0000 0.0000 0.0000 42.1646 10.2650 6.6842 33.1571 13.6166 11.3700 0.7020 28.9164 -1.9399 -20.2099 5.7286 -1.9261 0.0000 0.0000 0.0000 2.7581 0.5837 -21.4192 6.8925 5.1148 46.0234 -2.2921 0.1879 -2.8487 -0.0000 -0.0000 0.0000
-23.9337 40.1454 6.4876 178.5100 -31.6375 178.0740 0.0000 0.0000 0.0000 1.9851 -7.3501 3.2325 2.3026 -6.4479 14.5971 -6.8077 -0.3049 -15.4862 -0.0000 0.0000 -0.0000 0.0000 0.0000 0.0000 12.1752 1.1150 4.0659 -5.3852 3.1286 8.3066 0.0000 0.0000 0.0000 -2.1588 -1.7058 -10.2701 0.0000 0.0000 0.0000 -49.3484 -12.1405 8.8437 -35.5783 8.4969 1.4217 -2.1083 -16.9037 25.2439 5.3221 0.0205 -0.2441 0.0000 0.0000 0.0000 41.8174 10.3857 6.6909 32.6449 18.5310 12.0466 0.6615 32.4022 -0.6570 -19.7199 4.9019 -1.7389 0.0000 0.0000 0.0000 2.9272 0.2802 -22.5714 4.1115 4.2104 35.5904 -2.3415 0.1916 -2.7443 -0.0000 -0.0000 0.0000
-24.9064 40.0981 5.3924 178.3630 -30.7781 178.1690 0.0000 0.0000 0.0000 1.0063 -7.5815 6.2658 2.6386 -5.2536 13.2802 -6.7022 -0.3645 -16.5128 -0.0000 0.0000 -0.0000 0.0000 0.0000 0.0000 12.0286 1.2250 3.5311 -6.4288 3.3374 8.9553 0.0000 0.0000 0.0000 -2.0985 -0.8778 -10.4482 0.0000 0.0000 0.0000 -49.9458 -12.4207 9.1111 -35.9097 8.9947 -2.0600 -4.7781 -11.0213 30.7365 5.3221 0.0205 -0.2441 0.0000 0.0000 0.0000 41.2918 10.4461 6.6414 32.2620 22.8684 12.6969 0.6767 35.2122 -0.5772 -19.6283 4.3637 -1.6411 0.0000 0.0000 0.0000 2.5274 1.4298 -22.5546 1.2047 1.3285 22.9203 -2.6998 0.2487 -1.2778 -0.0000 -0.0000 0.0000
-25.8906 40.0017 4.2465 178.0050 -30.0239 178.2160 0.0000 0.0000 0.0000 -0.3501 -8.0107 9.6686 3.0259 -3.7212 11.7671 -6.0811 -0.4016 -17.7026 -0.0000 0.0000 -0.0000 0.0000 0.0000 0.0000 11.1716 1.3915 3.0518 -7.0703 3.5616 9.7213 0.0000 0.0000 0.0000 -1.9593 -0.1641 -10.7378 0.0000 0.0000 0.0000 -50.3650 -12.6255 9.3062 -36.6789 10.1222 -2.8803 -5.5501 -7.2013 32.3755 5.3221 0.0205 -0.2441 0.0000 0.0000 0.0000 40.9023 10.4498 6.5852 31.6876 26.3106 13.1884 0.7158 37.3791 -0.9465 -19.5969 4.1840 -1.6086 0.0000 0.0000 0.0000 1.7889 3.4804 -21.5014 -0.7619 -0.3087 9.8532 -4.4588 0.4524 0.3344 -0.0000 -0.0000 0.0000
